/* XPM */
static const char *collectable[] = {
/* columns rows colors chars-per-pixel */
"50 50 7 1 ",
"  c #FF7E00",
". c #22B14C",
"X c #43945A",
"o c #E3D217",
"O c #F7A354",
"+ c #FFF461",
"@ c #0BCFB1",
/* pixels */
"@@@@@@@@@@@@@@@@@@@@@@@@@@@@@@@@@@@@@@@@@@@@@@@@@@",
"@@@@@@@@@@@@@@@@@@@@@@@@@@@@@@@@@@@@@@@@@@@@@@@@@@",
"@@@@@@@@@@@@@@@@@@@@@@@@@@@@@@@@@@@@@@@@@@@@@@@@@@",
"@@@++++++++++++++++++++++++++++++++++++++++++++@@@",
"@@@+++++++o+o++++++++++++o++++......+++++++++++@@@",
"@@@++++++ooooo+o++++++++o+++o...XX..o++++++++++@@@",
"@@@++++oo+++ooooo+ooo+++++oo..XXX..ooooo+++++++@@@",
"@@@+++o+oo+ooooooo+oo++oooo..XX....o+o+o+++++++@@@",
"@@@+++o+oooooooo+oooo+oo+o........oo+oooo++++++@@@",
"@@@+++oooooo+oooooooooo   .    o+ooooo+oooo++++@@@",
"@@@++oo+oooooooooooo      .       oooooooooo+++@@@",
"@@@+++o+o+ooo+oooo        .         oooooooo+++@@@",
"@@@++++oo+ooooooo         .  OOOOO   ooooooo+++@@@",
"@@@+++o+oooooooo             OOOOOO   oooo+o+++@@@",
"@@@+++++ooooooo                 OOOOO  ooo++o++@@@",
"@@@++++++ooooo                    OOOO  +o+++++@@@",
"@@@+++++ooooo                      OOO   +o++++@@@",
"@@@++++++ooo+                       OOO  o+++++@@@",
"@@@+++++o+oo                        OOO   +++++@@@",
"@@@++o+oo+oo                         OOO  o++++@@@",
"@@@++ooo+ooo                          OO  +++++@@@",
"@@@++o++o+o                           OO   ++++@@@",
"@@@++ooo+oo                           OO   ++++@@@",
"@@@+o++oo++                           OO   o+++@@@",
"@@@++++o++o                           OOO  o+++@@@",
"@@@+++o+o+o                            OO  ++++@@@",
"@@@++++oooo                            OO  ++++@@@",
"@@@+++++oo+                                ++++@@@",
"@@@++++oo+o                                ++++@@@",
"@@@++++++ooo                              +++++@@@",
"@@@+++++o++o                              +++++@@@",
"@@@+++++ooo+                              o++++@@@",
"@@@++++++o+oo                            ++oo++@@@",
"@@@++++++o+oo                            o+o+++@@@",
"@@@++++ooooooo                          oooo+++@@@",
"@@@+++oo++ooooo                        ooooo+++@@@",
"@@@++ooooooooooo                      oooooo+++@@@",
"@@@+++ooooooooooo                    ooooooo+++@@@",
"@@@+oooo+o+ooooooo                  ooo+oooo+++@@@",
"@@@+o+++oo+ooo+ooooo              oooooooo+o+++@@@",
"@@@+++o+oo+oo+ooo+oooo+        o++ooo+oooooo+++@@@",
"@@@++o+o++++++oo+ooo+o+++o+oooo+o+oooo+oooo++++@@@",
"@@@++ooooo+o+o++oo++o++++++oo+++++++oooo+o+++++@@@",
"@@@++o++++oooo+o+oo+++++++++++++++++ooooo++++++@@@",
"@@@+++o+oo++oo+++++++++++++++++++++++o+++++++++@@@",
"@@@++++++++++++++++++++++++++++++++++++++++++++@@@",
"@@@+++++++o++++++++++++++++++++++++++++++++++++@@@",
"@@@@@@@@@@@@@@@@@@@@@@@@@@@@@@@@@@@@@@@@@@@@@@@@@@",
"@@@@@@@@@@@@@@@@@@@@@@@@@@@@@@@@@@@@@@@@@@@@@@@@@@",
"@@@@@@@@@@@@@@@@@@@@@@@@@@@@@@@@@@@@@@@@@@@@@@@@@@"
};
